<svg width="680" height="398" viewBox="0 0 680 398" fill="none" xmlns="http://www.w3.org/2000/svg">
<path d="M313.375 66H289V50.5714C289 42.0616 297.745 35.1429 308.5 35.1429H310.937C314.99 35.1429 318.25 32.5634 318.25 29.3571V17.7857C318.25 14.5795 314.99 12 310.937 12H308.5C281.566 12 259.75 29.2607 259.75 50.5714V108.429C259.75 114.817 266.301 120 274.375 120H313.375C321.449 120 328 114.817 328 108.429V77.5714C328 71.183 321.449 66 313.375 66ZM225.625 66H201.25V50.5714C201.25 42.0616 209.995 35.1429 220.75 35.1429H223.187C227.24 35.1429 230.5 32.5634 230.5 29.3571V17.7857C230.5 14.5795 227.24 12 223.187 12H220.75C193.816 12 172 29.2607 172 50.5714V108.429C172 114.817 178.551 120 186.625 120H225.625C233.699 120 240.25 114.817 240.25 108.429V77.5714C240.25 71.183 233.699 66 225.625 66Z" fill="black" fill-opacity="0.03"/>
<path d="M71.875 258H65V252.857C65 250.021 67.4664 247.714 70.5 247.714H71.1875C72.3305 247.714 73.25 246.854 73.25 245.786V241.929C73.25 240.86 72.3305 240 71.1875 240H70.5C62.9031 240 56.75 245.754 56.75 252.857V272.143C56.75 274.272 58.5977 276 60.875 276H71.875C74.1523 276 76 274.272 76 272.143V261.857C76 259.728 74.1523 258 71.875 258ZM47.125 258H40.25V252.857C40.25 250.021 42.7164 247.714 45.75 247.714H46.4375C47.5805 247.714 48.5 246.854 48.5 245.786V241.929C48.5 240.86 47.5805 240 46.4375 240H45.75C38.1531 240 32 245.754 32 252.857V272.143C32 274.272 33.8477 276 36.125 276H47.125C49.4023 276 51.25 274.272 51.25 272.143V261.857C51.25 259.728 49.4023 258 47.125 258Z" fill="black" fill-opacity="0.03"/>
<path d="M670.719 151H645.969C640.845 151 636.688 154.551 636.688 158.929V180.071C636.688 184.449 640.845 188 645.969 188H661.438V198.571C661.438 204.402 655.888 209.143 649.062 209.143H647.516C644.944 209.143 642.875 210.91 642.875 213.107V221.036C642.875 223.233 644.944 225 647.516 225H649.062C666.155 225 680 213.173 680 198.571V158.929C680 154.551 675.843 151 670.719 151ZM615.031 151H590.281C585.157 151 581 154.551 581 158.929V180.071C581 184.449 585.157 188 590.281 188H605.75V198.571C605.75 204.402 600.201 209.143 593.375 209.143H591.828C589.256 209.143 587.188 210.91 587.188 213.107V221.036C587.188 223.233 589.256 225 591.828 225H593.375C610.468 225 624.313 213.173 624.313 198.571V158.929C624.313 154.551 620.155 151 615.031 151Z" fill="black" fill-opacity="0.03"/>
<path d="M521.813 38H505.313C501.896 38 499.125 40.4475 499.125 43.4643V58.0357C499.125 61.0525 501.896 63.5 505.313 63.5H515.625V70.7857C515.625 74.8042 511.925 78.0714 507.375 78.0714H506.344C504.629 78.0714 503.25 79.2895 503.25 80.8036V86.2679C503.25 87.7819 504.629 89 506.344 89H507.375C518.77 89 528 80.8491 528 70.7857V43.4643C528 40.4475 525.229 38 521.813 38ZM484.688 38H468.188C464.771 38 462 40.4475 462 43.4643V58.0357C462 61.0525 464.771 63.5 468.188 63.5H478.5V70.7857C478.5 74.8042 474.8 78.0714 470.25 78.0714H469.219C467.504 78.0714 466.125 79.2895 466.125 80.8036V86.2679C466.125 87.7819 467.504 89 469.219 89H470.25C481.645 89 490.875 80.8491 490.875 70.7857V43.4643C490.875 40.4475 488.104 38 484.688 38Z" fill="black" fill-opacity="0.03"/>
<path d="M430.656 302H408.406C403.8 302 400.063 305.215 400.063 309.179V328.321C400.063 332.285 403.8 335.5 408.406 335.5H422.313V345.071C422.313 350.351 417.324 354.643 411.188 354.643H409.797C407.485 354.643 405.625 356.243 405.625 358.232V365.411C405.625 367.4 407.485 369 409.797 369H411.188C426.554 369 439 358.292 439 345.071V309.179C439 305.215 435.263 302 430.656 302ZM380.594 302H358.344C353.737 302 350 305.215 350 309.179V328.321C350 332.285 353.737 335.5 358.344 335.5H372.25V345.071C372.25 350.351 367.261 354.643 361.125 354.643H359.734C357.422 354.643 355.563 356.243 355.563 358.232V365.411C355.563 367.4 357.422 369 359.734 369H361.125C376.491 369 388.938 358.292 388.938 345.071V309.179C388.938 305.215 385.2 302 380.594 302Z" fill="black" fill-opacity="0.03"/>
</svg>
